<svg width="207" height="168" viewBox="0 0 207 168" fill="none" xmlns="http://www.w3.org/2000/svg">
<path d="M75.8706 20.5L25.5412 104L2 91L34.4706 129L60.2441 87.5L86.0176 46H97.7882L104.688 36L111.994 46H123L169 129L201.5 91L177.959 104L134.565 20.5H116.053L104.688 0L93.3235 20.5H75.8706Z" fill="#D9D9D9"/>
<path d="M133.129 168L189.5 168L206.5 107L177.5 144L115.676 144L109 134.5L104.5 127.5L100.5 134.5L93.9471 144L29 144L0 107L17 168L72.4353 168H93.9471L104.5 153.5L115.676 168H133.129Z" fill="#D9D9D9"/>
<path d="M105 57L107.5 65.4434L126.651 76.5V99.5L133.5 106L124.053 103L105 114L85.5 103L76.5 106L83.3494 99.5V76.5L102.5 65.4434L105 57Z" fill="#D9D9D9"/>
</svg>
